<svg xmlns="http://www.w3.org/2000/svg" xmlns:xlink="http://www.w3.org/1999/xlink" width="500" zoomAndPan="magnify" viewBox="0 0 375 374.999991" height="500" preserveAspectRatio="xMidYMid meet" version="1.0"><defs><clipPath id="16c10ce2c7"><path d="M 62 121.636719 L 352.003906 121.636719 L 352.003906 372.746094 L 62 372.746094 Z M 62 121.636719 " clip-rule="nonzero"/></clipPath><clipPath id="7f16a2d181"><path d="M 43.003906 2.277344 L 339 2.277344 L 339 359 L 43.003906 359 Z M 43.003906 2.277344 " clip-rule="nonzero"/></clipPath></defs><g clip-path="url(#16c10ce2c7)"><path fill="#ffde59" d="M 352.011719 121.929688 L 304.101562 121.929688 L 304.101562 372.746094 L 352.011719 372.746094 Z M 271.324219 176.554688 L 223.421875 176.554688 L 223.421875 372.746094 L 271.324219 372.746094 Z M 190.644531 216.507812 L 142.75 216.507812 L 142.75 372.746094 L 190.644531 372.746094 Z M 109.972656 372.746094 L 62.070312 372.746094 L 62.070312 246.746094 L 109.972656 246.746094 L 109.972656 372.746094 " fill-opacity="1" fill-rule="nonzero"/></g><g clip-path="url(#7f16a2d181)"><path fill="#0f0e0c" d="M 316.640625 12.535156 C 296.464844 43.070312 261.398438 84.058594 205.78125 114.222656 C 149.941406 144.539062 96.101562 151.726562 57.472656 151.726562 C 53.316406 151.726562 49.386719 151.652344 45.605469 151.503906 C 44.121094 151.429688 43.011719 150.246094 43.082031 148.761719 C 43.15625 147.28125 44.417969 146.242188 45.828125 146.242188 C 84.089844 147.726562 142.527344 142.609375 203.332031 109.628906 C 259.316406 79.242188 294.089844 37.660156 313.738281 7.492188 L 268.875 7.492188 C 267.394531 7.492188 266.28125 6.308594 266.28125 4.898438 C 266.28125 3.492188 267.476562 2.304688 268.875 2.304688 L 319.300781 2.304688 C 320.785156 2.304688 321.898438 3.492188 321.898438 4.898438 L 321.898438 56.117188 C 321.898438 57.597656 320.71875 58.710938 319.300781 58.710938 C 317.898438 58.710938 316.707031 57.523438 316.707031 56.117188 L 316.707031 12.535156 Z M 333.023438 353.328125 L 290.382812 353.328125 L 290.382812 107.777344 L 333.023438 107.777344 Z M 335.617188 102.511719 L 287.722656 102.511719 C 286.238281 102.511719 285.125 103.699219 285.125 105.109375 L 285.125 355.921875 C 285.125 357.40625 286.304688 358.515625 287.722656 358.515625 L 335.617188 358.515625 C 337.101562 358.515625 338.214844 357.332031 338.214844 355.921875 L 338.214844 105.179688 C 338.292969 103.699219 337.101562 102.511719 335.617188 102.511719 Z M 252.34375 353.328125 L 209.703125 353.328125 L 209.703125 162.402344 L 252.34375 162.402344 Z M 254.9375 157.136719 L 207.042969 157.136719 C 205.558594 157.136719 204.445312 158.324219 204.445312 159.730469 L 204.445312 355.921875 C 204.445312 357.40625 205.625 358.515625 207.042969 358.515625 L 254.9375 358.515625 C 256.421875 358.515625 257.535156 357.332031 257.535156 355.921875 L 257.535156 159.730469 C 257.609375 158.324219 256.421875 157.136719 254.9375 157.136719 Z M 171.671875 353.328125 L 129.03125 353.328125 L 129.03125 202.351562 L 171.671875 202.351562 Z M 174.265625 197.085938 L 126.355469 197.085938 C 124.871094 197.085938 123.757812 198.273438 123.757812 199.683594 L 123.757812 355.921875 C 123.757812 357.40625 124.953125 358.515625 126.355469 358.515625 L 174.265625 358.515625 C 175.75 358.515625 176.859375 357.332031 176.859375 355.921875 L 176.859375 199.683594 C 176.929688 198.273438 175.75 197.085938 174.265625 197.085938 Z M 90.992188 353.328125 L 48.351562 353.328125 L 48.351562 232.589844 L 90.992188 232.589844 Z M 93.585938 227.328125 L 45.683594 227.328125 C 44.199219 227.328125 43.085938 228.515625 43.085938 229.921875 L 43.085938 355.921875 C 43.085938 357.40625 44.273438 358.515625 45.683594 358.515625 L 93.585938 358.515625 C 95.070312 358.515625 96.179688 357.332031 96.179688 355.921875 L 96.179688 229.921875 C 96.257812 228.515625 95.070312 227.328125 93.585938 227.328125 " fill-opacity="1" fill-rule="nonzero"/></g></svg>