<svg xmlns="http://www.w3.org/2000/svg" xmlns:xlink="http://www.w3.org/1999/xlink" width="150" zoomAndPan="magnify" viewBox="0 0 112.5 30.000001" height="40" preserveAspectRatio="xMidYMid meet" version="1.0"><defs><g/><clipPath id="802a645ad4"><path d="M 4.480469 9.394531 L 27.089844 9.394531 L 27.089844 29.03125 L 4.480469 29.03125 Z M 4.480469 9.394531 " clip-rule="nonzero"/></clipPath><clipPath id="a89ada1468"><path d="M 3.03125 0 L 27 0 L 27 29 L 3.03125 29 Z M 3.03125 0 " clip-rule="nonzero"/></clipPath></defs><g clip-path="url(#802a645ad4)"><path fill="#ffde59" d="M 27.089844 9.417969 L 23.359375 9.417969 L 23.359375 29.160156 L 27.089844 29.160156 Z M 20.808594 13.71875 L 17.078125 13.71875 L 17.078125 29.160156 L 20.808594 29.160156 Z M 14.527344 16.863281 L 10.796875 16.863281 L 10.796875 29.160156 L 14.527344 29.160156 Z M 8.246094 29.160156 L 4.515625 29.160156 L 4.515625 19.242188 L 8.246094 19.242188 L 8.246094 29.160156 " fill-opacity="1" fill-rule="nonzero"/></g><g clip-path="url(#a89ada1468)"><path fill="#0f0e0c" d="M 24.335938 0.808594 C 22.765625 3.210938 20.035156 6.4375 15.703125 8.8125 C 11.355469 11.195312 7.164062 11.761719 4.15625 11.761719 C 3.832031 11.761719 3.527344 11.757812 3.234375 11.746094 C 3.117188 11.738281 3.03125 11.644531 3.035156 11.53125 C 3.042969 11.414062 3.140625 11.332031 3.25 11.332031 C 6.230469 11.449219 10.777344 11.046875 15.511719 8.449219 C 19.871094 6.058594 22.578125 2.785156 24.109375 0.410156 L 20.617188 0.410156 C 20.5 0.410156 20.414062 0.316406 20.414062 0.207031 C 20.414062 0.0976562 20.507812 0.00390625 20.617188 0.00390625 L 24.542969 0.00390625 C 24.65625 0.00390625 24.746094 0.0976562 24.746094 0.207031 L 24.746094 4.238281 C 24.746094 4.355469 24.652344 4.441406 24.542969 4.441406 C 24.433594 4.441406 24.339844 4.347656 24.339844 4.238281 L 24.339844 0.808594 Z M 25.609375 27.628906 L 22.289062 27.628906 L 22.289062 8.304688 L 25.609375 8.304688 Z M 25.8125 7.890625 L 22.082031 7.890625 C 21.96875 7.890625 21.882812 7.984375 21.882812 8.09375 L 21.882812 27.835938 C 21.882812 27.953125 21.972656 28.039062 22.082031 28.039062 L 25.8125 28.039062 C 25.929688 28.039062 26.015625 27.945312 26.015625 27.835938 L 26.015625 8.097656 C 26.019531 7.984375 25.929688 7.890625 25.8125 7.890625 Z M 19.328125 27.628906 L 16.007812 27.628906 L 16.007812 12.601562 L 19.328125 12.601562 Z M 19.53125 12.1875 L 15.800781 12.1875 C 15.6875 12.1875 15.601562 12.28125 15.601562 12.394531 L 15.601562 27.835938 C 15.601562 27.953125 15.691406 28.039062 15.800781 28.039062 L 19.53125 28.039062 C 19.648438 28.039062 19.734375 27.945312 19.734375 27.835938 L 19.734375 12.394531 C 19.738281 12.28125 19.648438 12.1875 19.53125 12.1875 Z M 13.046875 27.628906 L 9.726562 27.628906 L 9.726562 15.746094 L 13.046875 15.746094 Z M 13.25 15.332031 L 9.519531 15.332031 C 9.40625 15.332031 9.316406 15.425781 9.316406 15.539062 L 9.316406 27.835938 C 9.316406 27.953125 9.410156 28.039062 9.519531 28.039062 L 13.25 28.039062 C 13.367188 28.039062 13.453125 27.945312 13.453125 27.835938 L 13.453125 15.539062 C 13.457031 15.425781 13.367188 15.332031 13.25 15.332031 Z M 6.765625 27.628906 L 3.445312 27.628906 L 3.445312 18.128906 L 6.765625 18.128906 Z M 6.96875 17.714844 L 3.238281 17.714844 C 3.125 17.714844 3.035156 17.808594 3.035156 17.917969 L 3.035156 27.835938 C 3.035156 27.953125 3.128906 28.039062 3.238281 28.039062 L 6.96875 28.039062 C 7.085938 28.039062 7.171875 27.945312 7.171875 27.835938 L 7.171875 17.917969 C 7.175781 17.808594 7.085938 17.714844 6.96875 17.714844 " fill-opacity="1" fill-rule="nonzero"/></g><g fill="#000000" fill-opacity="1"><g transform="translate(28.360138, 15.945646)"><g><path d="M 1.734375 -1.15625 C 0.859375 -2.113281 0.421875 -3.28125 0.421875 -4.65625 C 0.421875 -6.039062 0.859375 -7.210938 1.734375 -8.171875 C 2.609375 -9.140625 3.71875 -9.625 5.0625 -9.625 C 6.300781 -9.625 7.320312 -9.234375 8.125 -8.453125 L 8.125 -9.34375 L 11.34375 -9.34375 L 11.34375 0 L 8.15625 0 L 8.15625 -1.0625 L 8.125 -1.0625 C 7.320312 -0.175781 6.300781 0.265625 5.0625 0.265625 C 3.71875 0.265625 2.609375 -0.207031 1.734375 -1.15625 Z M 4.46875 -6.25 C 4.050781 -5.832031 3.84375 -5.300781 3.84375 -4.65625 C 3.84375 -4.019531 4.039062 -3.5 4.4375 -3.09375 C 4.84375 -2.6875 5.375 -2.484375 6.03125 -2.484375 C 6.664062 -2.484375 7.1875 -2.6875 7.59375 -3.09375 C 8 -3.507812 8.203125 -4.03125 8.203125 -4.65625 C 8.203125 -5.300781 7.988281 -5.832031 7.5625 -6.25 C 7.144531 -6.664062 6.632812 -6.875 6.03125 -6.875 C 5.40625 -6.875 4.882812 -6.664062 4.46875 -6.25 Z M 4.46875 -6.25 "/></g></g></g><g fill="#000000" fill-opacity="1"><g transform="translate(39.895682, 15.945646)"><g><path d="M 1.09375 0 L 1.09375 -15.671875 L 4.3125 -15.671875 L 4.3125 0 Z M 1.09375 0 "/></g></g></g><g fill="#000000" fill-opacity="1"><g transform="translate(44.396914, 15.945646)"><g><path d="M 3.171875 -3.90625 C 3.753906 -3.90625 4.25 -3.695312 4.65625 -3.28125 C 5.0625 -2.875 5.265625 -2.378906 5.265625 -1.796875 C 5.265625 -1.234375 5.0625 -0.75 4.65625 -0.34375 C 4.25 0.0625 3.753906 0.265625 3.171875 0.265625 C 2.597656 0.265625 2.109375 0.0625 1.703125 -0.34375 C 1.296875 -0.75 1.09375 -1.234375 1.09375 -1.796875 C 1.09375 -2.378906 1.296875 -2.875 1.703125 -3.28125 C 2.109375 -3.695312 2.597656 -3.90625 3.171875 -3.90625 Z M 3.171875 -3.90625 "/></g></g></g><g fill="#000000" fill-opacity="1"><g transform="translate(49.845772, 15.945646)"><g><path d="M 10.546875 -4.234375 L 3.765625 -4.234375 C 3.765625 -3.578125 3.976562 -3.085938 4.40625 -2.765625 C 4.832031 -2.453125 5.296875 -2.296875 5.796875 -2.296875 C 6.316406 -2.296875 6.726562 -2.363281 7.03125 -2.5 C 7.332031 -2.644531 7.679688 -2.921875 8.078125 -3.328125 L 10.40625 -2.171875 C 9.4375 -0.546875 7.820312 0.265625 5.5625 0.265625 C 4.144531 0.265625 2.929688 -0.210938 1.921875 -1.171875 C 0.921875 -2.140625 0.421875 -3.300781 0.421875 -4.65625 C 0.421875 -6.019531 0.921875 -7.1875 1.921875 -8.15625 C 2.929688 -9.132812 4.144531 -9.625 5.5625 -9.625 C 7.039062 -9.625 8.242188 -9.191406 9.171875 -8.328125 C 10.097656 -7.472656 10.5625 -6.25 10.5625 -4.65625 C 10.5625 -4.445312 10.554688 -4.304688 10.546875 -4.234375 Z M 3.859375 -6.015625 L 7.421875 -6.015625 C 7.347656 -6.492188 7.15625 -6.863281 6.84375 -7.125 C 6.53125 -7.394531 6.128906 -7.53125 5.640625 -7.53125 C 5.109375 -7.53125 4.6875 -7.390625 4.375 -7.109375 C 4.0625 -6.828125 3.890625 -6.460938 3.859375 -6.015625 Z M 3.859375 -6.015625 "/></g></g></g><g fill="#000000" fill-opacity="1"><g transform="translate(59.923427, 15.945646)"><g><path d="M 1.09375 0 L 1.09375 -9.34375 L 4.3125 -9.34375 L 4.3125 -8.359375 L 4.359375 -8.359375 C 5.191406 -9.203125 6.082031 -9.625 7.03125 -9.625 C 7.707031 -9.625 8.34375 -9.484375 8.9375 -9.203125 C 9.539062 -8.921875 9.992188 -8.488281 10.296875 -7.90625 C 11.242188 -9.050781 12.273438 -9.625 13.390625 -9.625 C 14.390625 -9.625 15.242188 -9.34375 15.953125 -8.78125 C 16.671875 -8.21875 17.03125 -7.34375 17.03125 -6.15625 L 17.03125 0 L 13.8125 0 L 13.8125 -5.28125 C 13.8125 -5.78125 13.671875 -6.195312 13.390625 -6.53125 C 13.117188 -6.863281 12.710938 -7.03125 12.171875 -7.03125 C 11.691406 -7.03125 11.328125 -6.882812 11.078125 -6.59375 C 10.835938 -6.3125 10.703125 -5.972656 10.671875 -5.578125 L 10.671875 0 L 7.453125 0 L 7.453125 -5.28125 C 7.453125 -5.78125 7.3125 -6.195312 7.03125 -6.53125 C 6.757812 -6.863281 6.351562 -7.03125 5.8125 -7.03125 C 5.3125 -7.03125 4.9375 -6.875 4.6875 -6.5625 C 4.4375 -6.257812 4.3125 -5.894531 4.3125 -5.46875 L 4.3125 0 Z M 1.09375 0 "/></g></g></g><g fill="#000000" fill-opacity="1"><g transform="translate(76.962502, 15.945646)"><g><path d="M 3.171875 -3.90625 C 3.753906 -3.90625 4.25 -3.695312 4.65625 -3.28125 C 5.0625 -2.875 5.265625 -2.378906 5.265625 -1.796875 C 5.265625 -1.234375 5.0625 -0.75 4.65625 -0.34375 C 4.25 0.0625 3.753906 0.265625 3.171875 0.265625 C 2.597656 0.265625 2.109375 0.0625 1.703125 -0.34375 C 1.296875 -0.75 1.09375 -1.234375 1.09375 -1.796875 C 1.09375 -2.378906 1.296875 -2.875 1.703125 -3.28125 C 2.109375 -3.695312 2.597656 -3.90625 3.171875 -3.90625 Z M 3.171875 -3.90625 "/></g></g></g><g fill="#000000" fill-opacity="1"><g transform="translate(82.411362, 15.945646)"><g><path d="M 11.765625 -9.34375 L 7.328125 -4.875 L 12.203125 0 L 8.046875 0 L 4.3125 -3.734375 L 4.3125 0 L 1.09375 0 L 1.09375 -15.671875 L 4.3125 -15.671875 L 4.3125 -6.078125 L 7.578125 -9.34375 Z M 11.765625 -9.34375 "/></g></g></g><g fill="#000000" fill-opacity="1"><g transform="translate(93.272632, 15.945646)"><g><path d="M 1.734375 -1.15625 C 0.859375 -2.113281 0.421875 -3.28125 0.421875 -4.65625 C 0.421875 -6.039062 0.859375 -7.210938 1.734375 -8.171875 C 2.609375 -9.140625 3.71875 -9.625 5.0625 -9.625 C 6.300781 -9.625 7.320312 -9.234375 8.125 -8.453125 L 8.125 -9.34375 L 11.34375 -9.34375 L 11.34375 0 L 8.15625 0 L 8.15625 -1.0625 L 8.125 -1.0625 C 7.320312 -0.175781 6.300781 0.265625 5.0625 0.265625 C 3.71875 0.265625 2.609375 -0.207031 1.734375 -1.15625 Z M 4.46875 -6.25 C 4.050781 -5.832031 3.84375 -5.300781 3.84375 -4.65625 C 3.84375 -4.019531 4.039062 -3.5 4.4375 -3.09375 C 4.84375 -2.6875 5.375 -2.484375 6.03125 -2.484375 C 6.664062 -2.484375 7.1875 -2.6875 7.59375 -3.09375 C 8 -3.507812 8.203125 -4.03125 8.203125 -4.65625 C 8.203125 -5.300781 7.988281 -5.832031 7.5625 -6.25 C 7.144531 -6.664062 6.632812 -6.875 6.03125 -6.875 C 5.40625 -6.875 4.882812 -6.664062 4.46875 -6.25 Z M 4.46875 -6.25 "/></g></g></g><g fill="#000000" fill-opacity="1"><g transform="translate(49.403609, 26.825455)"><g><path d="M 5.734375 0 L 5.28125 0 C 5.164062 0 5.078125 -0.0195312 5.015625 -0.0625 C 4.953125 -0.101562 4.894531 -0.171875 4.84375 -0.265625 L 2.359375 -4.140625 L 1.9375 -4.859375 L 1.921875 -4.859375 L 1.921875 -0.640625 L 2.578125 -0.640625 C 2.648438 -0.640625 2.6875 -0.609375 2.6875 -0.546875 L 2.6875 -0.109375 C 2.6875 -0.0351562 2.648438 0 2.578125 0 L 0.515625 0 C 0.441406 0 0.40625 -0.0351562 0.40625 -0.109375 L 0.40625 -0.546875 C 0.40625 -0.609375 0.441406 -0.640625 0.515625 -0.640625 L 1.171875 -0.640625 L 1.171875 -5.5 L 0.515625 -5.5 C 0.441406 -5.5 0.40625 -5.535156 0.40625 -5.609375 L 0.40625 -6.046875 C 0.40625 -6.109375 0.441406 -6.140625 0.515625 -6.140625 L 1.71875 -6.140625 C 1.882812 -6.140625 2.03125 -6.046875 2.15625 -5.859375 L 4.59375 -2.03125 L 5.09375 -1.203125 L 5.109375 -1.203125 L 5.109375 -5.5 L 4.4375 -5.5 C 4.375 -5.5 4.34375 -5.535156 4.34375 -5.609375 L 4.34375 -6.046875 C 4.34375 -6.109375 4.375 -6.140625 4.4375 -6.140625 L 6.5 -6.140625 C 6.570312 -6.140625 6.609375 -6.109375 6.609375 -6.046875 L 6.609375 -5.609375 C 6.609375 -5.535156 6.570312 -5.5 6.5 -5.5 L 5.84375 -5.5 L 5.84375 -0.109375 C 5.84375 -0.0351562 5.804688 0 5.734375 0 Z M 5.734375 0 "/></g></g></g><g fill="#000000" fill-opacity="1"><g transform="translate(56.858914, 26.825455)"><g><path d="M 6.375 -3.109375 C 6.375 -2.171875 6.09375 -1.40625 5.53125 -0.8125 C 4.96875 -0.226562 4.257812 0.0625 3.40625 0.0625 C 2.550781 0.0625 1.835938 -0.234375 1.265625 -0.828125 C 0.691406 -1.421875 0.40625 -2.179688 0.40625 -3.109375 C 0.40625 -4.046875 0.695312 -4.796875 1.28125 -5.359375 C 1.875 -5.921875 2.578125 -6.203125 3.390625 -6.203125 C 4.210938 -6.203125 4.914062 -5.921875 5.5 -5.359375 C 6.082031 -4.796875 6.375 -4.046875 6.375 -3.109375 Z M 1.875 -1.28125 C 2.3125 -0.851562 2.816406 -0.640625 3.390625 -0.640625 C 3.972656 -0.640625 4.484375 -0.851562 4.921875 -1.28125 C 5.359375 -1.71875 5.578125 -2.316406 5.578125 -3.078125 C 5.578125 -3.847656 5.351562 -4.445312 4.90625 -4.875 C 4.46875 -5.300781 3.960938 -5.515625 3.390625 -5.515625 C 2.828125 -5.515625 2.320312 -5.300781 1.875 -4.875 C 1.4375 -4.445312 1.21875 -3.847656 1.21875 -3.078125 C 1.21875 -2.316406 1.4375 -1.71875 1.875 -1.28125 Z M 1.875 -1.28125 "/></g></g></g><g fill="#000000" fill-opacity="1"><g transform="translate(64.082845, 26.825455)"><g><path d="M 4.09375 0 L 2.09375 0 C 2.019531 0 1.984375 -0.0351562 1.984375 -0.109375 L 1.984375 -0.53125 C 1.984375 -0.601562 2.019531 -0.640625 2.09375 -0.640625 L 2.75 -0.640625 L 2.75 -5.5 L 1.125 -5.5 L 1.125 -4.59375 C 1.125 -4.519531 1.085938 -4.484375 1.015625 -4.484375 L 0.53125 -4.484375 C 0.445312 -4.484375 0.40625 -4.519531 0.40625 -4.59375 L 0.40625 -6.03125 C 0.40625 -6.101562 0.445312 -6.140625 0.53125 -6.140625 L 5.6875 -6.140625 C 5.769531 -6.140625 5.8125 -6.101562 5.8125 -6.03125 L 5.8125 -4.59375 C 5.8125 -4.519531 5.769531 -4.484375 5.6875 -4.484375 L 5.203125 -4.484375 C 5.128906 -4.484375 5.09375 -4.519531 5.09375 -4.59375 L 5.09375 -5.5 L 3.5 -5.5 L 3.5 -0.640625 L 4.09375 -0.640625 C 4.175781 -0.640625 4.21875 -0.601562 4.21875 -0.53125 L 4.21875 -0.109375 C 4.21875 -0.0351562 4.175781 0 4.09375 0 Z M 4.09375 0 "/></g></g></g><g fill="#000000" fill-opacity="1"><g transform="translate(70.741201, 26.825455)"><g><path d="M 5.0625 0 L 0.515625 0 C 0.441406 0 0.40625 -0.0351562 0.40625 -0.109375 L 0.40625 -0.546875 C 0.40625 -0.609375 0.441406 -0.640625 0.515625 -0.640625 L 1.171875 -0.640625 L 1.171875 -5.5 L 0.515625 -5.5 C 0.441406 -5.5 0.40625 -5.535156 0.40625 -5.609375 L 0.40625 -6.046875 C 0.40625 -6.109375 0.441406 -6.140625 0.515625 -6.140625 L 5.0625 -6.140625 C 5.144531 -6.140625 5.1875 -6.109375 5.1875 -6.046875 L 5.1875 -4.671875 C 5.1875 -4.597656 5.144531 -4.5625 5.0625 -4.5625 L 4.609375 -4.5625 C 4.535156 -4.5625 4.5 -4.597656 4.5 -4.671875 L 4.5 -5.5 L 1.921875 -5.5 L 1.921875 -3.375 L 4.078125 -3.375 C 4.160156 -3.375 4.203125 -3.34375 4.203125 -3.28125 L 4.203125 -2.84375 C 4.203125 -2.769531 4.160156 -2.734375 4.078125 -2.734375 L 1.921875 -2.734375 L 1.921875 -0.640625 L 4.5 -0.640625 L 4.5 -1.484375 C 4.5 -1.546875 4.535156 -1.578125 4.609375 -1.578125 L 5.0625 -1.578125 C 5.144531 -1.578125 5.1875 -1.546875 5.1875 -1.484375 L 5.1875 -0.109375 C 5.1875 -0.0351562 5.144531 0 5.0625 0 Z M 5.0625 0 "/></g></g></g><g fill="#000000" fill-opacity="1"><g transform="translate(76.765431, 26.825455)"><g><path d="M 3.28125 0 L 0.515625 0 C 0.441406 0 0.40625 -0.0351562 0.40625 -0.109375 L 0.40625 -0.546875 C 0.40625 -0.609375 0.441406 -0.640625 0.515625 -0.640625 L 1.171875 -0.640625 L 1.171875 -5.5 L 0.515625 -5.5 C 0.441406 -5.5 0.40625 -5.535156 0.40625 -5.609375 L 0.40625 -6.046875 C 0.40625 -6.109375 0.441406 -6.140625 0.515625 -6.140625 L 3.28125 -6.140625 C 3.851562 -6.140625 4.296875 -5.988281 4.609375 -5.6875 C 4.929688 -5.382812 5.09375 -4.988281 5.09375 -4.5 C 5.09375 -3.925781 4.835938 -3.5 4.328125 -3.21875 C 5.054688 -3 5.421875 -2.507812 5.421875 -1.75 C 5.421875 -1.21875 5.238281 -0.789062 4.875 -0.46875 C 4.519531 -0.15625 3.988281 0 3.28125 0 Z M 1.921875 -0.640625 L 3.234375 -0.640625 C 3.679688 -0.640625 4.03125 -0.734375 4.28125 -0.921875 C 4.539062 -1.117188 4.671875 -1.414062 4.671875 -1.8125 C 4.671875 -2.53125 4.207031 -2.890625 3.28125 -2.890625 L 1.921875 -2.890625 Z M 1.921875 -3.453125 L 3.234375 -3.453125 C 3.523438 -3.453125 3.78125 -3.535156 4 -3.703125 C 4.21875 -3.867188 4.328125 -4.128906 4.328125 -4.484375 C 4.328125 -4.835938 4.210938 -5.09375 3.984375 -5.25 C 3.753906 -5.414062 3.472656 -5.5 3.140625 -5.5 L 1.921875 -5.5 Z M 1.921875 -3.453125 "/></g></g></g><g fill="#000000" fill-opacity="1"><g transform="translate(83.029601, 26.825455)"><g><path d="M 6.375 -3.109375 C 6.375 -2.171875 6.09375 -1.40625 5.53125 -0.8125 C 4.96875 -0.226562 4.257812 0.0625 3.40625 0.0625 C 2.550781 0.0625 1.835938 -0.234375 1.265625 -0.828125 C 0.691406 -1.421875 0.40625 -2.179688 0.40625 -3.109375 C 0.40625 -4.046875 0.695312 -4.796875 1.28125 -5.359375 C 1.875 -5.921875 2.578125 -6.203125 3.390625 -6.203125 C 4.210938 -6.203125 4.914062 -5.921875 5.5 -5.359375 C 6.082031 -4.796875 6.375 -4.046875 6.375 -3.109375 Z M 1.875 -1.28125 C 2.3125 -0.851562 2.816406 -0.640625 3.390625 -0.640625 C 3.972656 -0.640625 4.484375 -0.851562 4.921875 -1.28125 C 5.359375 -1.71875 5.578125 -2.316406 5.578125 -3.078125 C 5.578125 -3.847656 5.351562 -4.445312 4.90625 -4.875 C 4.46875 -5.300781 3.960938 -5.515625 3.390625 -5.515625 C 2.828125 -5.515625 2.320312 -5.300781 1.875 -4.875 C 1.4375 -4.445312 1.21875 -3.847656 1.21875 -3.078125 C 1.21875 -2.316406 1.4375 -1.71875 1.875 -1.28125 Z M 1.875 -1.28125 "/></g></g></g><g fill="#000000" fill-opacity="1"><g transform="translate(90.253533, 26.825455)"><g><path d="M 6.375 -3.109375 C 6.375 -2.171875 6.09375 -1.40625 5.53125 -0.8125 C 4.96875 -0.226562 4.257812 0.0625 3.40625 0.0625 C 2.550781 0.0625 1.835938 -0.234375 1.265625 -0.828125 C 0.691406 -1.421875 0.40625 -2.179688 0.40625 -3.109375 C 0.40625 -4.046875 0.695312 -4.796875 1.28125 -5.359375 C 1.875 -5.921875 2.578125 -6.203125 3.390625 -6.203125 C 4.210938 -6.203125 4.914062 -5.921875 5.5 -5.359375 C 6.082031 -4.796875 6.375 -4.046875 6.375 -3.109375 Z M 1.875 -1.28125 C 2.3125 -0.851562 2.816406 -0.640625 3.390625 -0.640625 C 3.972656 -0.640625 4.484375 -0.851562 4.921875 -1.28125 C 5.359375 -1.71875 5.578125 -2.316406 5.578125 -3.078125 C 5.578125 -3.847656 5.351562 -4.445312 4.90625 -4.875 C 4.46875 -5.300781 3.960938 -5.515625 3.390625 -5.515625 C 2.828125 -5.515625 2.320312 -5.300781 1.875 -4.875 C 1.4375 -4.445312 1.21875 -3.847656 1.21875 -3.078125 C 1.21875 -2.316406 1.4375 -1.71875 1.875 -1.28125 Z M 1.875 -1.28125 "/></g></g></g><g fill="#000000" fill-opacity="1"><g transform="translate(97.477465, 26.825455)"><g><path d="M 6.015625 0 L 5.265625 0 C 5.054688 0 4.882812 -0.132812 4.75 -0.40625 L 3.953125 -2.046875 C 3.898438 -2.140625 3.851562 -2.210938 3.8125 -2.265625 C 3.78125 -2.316406 3.703125 -2.363281 3.578125 -2.40625 C 3.460938 -2.457031 3.3125 -2.484375 3.125 -2.484375 L 1.921875 -2.484375 L 1.921875 -0.640625 L 2.703125 -0.640625 C 2.773438 -0.640625 2.8125 -0.609375 2.8125 -0.546875 L 2.8125 -0.109375 C 2.8125 -0.0351562 2.773438 0 2.703125 0 L 0.515625 0 C 0.441406 0 0.40625 -0.0351562 0.40625 -0.109375 L 0.40625 -0.546875 C 0.40625 -0.609375 0.441406 -0.640625 0.515625 -0.640625 L 1.171875 -0.640625 L 1.171875 -5.5 L 0.515625 -5.5 C 0.441406 -5.5 0.40625 -5.535156 0.40625 -5.609375 L 0.40625 -6.046875 C 0.40625 -6.109375 0.441406 -6.140625 0.515625 -6.140625 L 2.4375 -6.140625 C 2.507812 -6.140625 2.546875 -6.109375 2.546875 -6.046875 L 2.546875 -5.609375 C 2.546875 -5.535156 2.507812 -5.5 2.4375 -5.5 L 1.921875 -5.5 L 1.921875 -3.09375 L 2.8125 -3.09375 C 3.414062 -3.09375 3.863281 -3.269531 4.15625 -3.625 C 4.457031 -3.988281 4.609375 -4.613281 4.609375 -5.5 L 4.03125 -5.5 C 3.957031 -5.5 3.921875 -5.535156 3.921875 -5.609375 L 3.921875 -6.046875 C 3.921875 -6.109375 3.957031 -6.140625 4.03125 -6.140625 L 5.9375 -6.140625 C 6 -6.140625 6.03125 -6.109375 6.03125 -6.046875 L 6.03125 -5.609375 C 6.03125 -5.535156 6 -5.5 5.9375 -5.5 L 5.34375 -5.5 C 5.34375 -4.125 4.953125 -3.226562 4.171875 -2.8125 C 4.304688 -2.75 4.410156 -2.664062 4.484375 -2.5625 C 4.554688 -2.46875 4.644531 -2.320312 4.75 -2.125 L 5.484375 -0.640625 L 6.015625 -0.640625 C 6.078125 -0.640625 6.109375 -0.609375 6.109375 -0.546875 L 6.109375 -0.109375 C 6.109375 -0.0351562 6.078125 0 6.015625 0 Z M 6.015625 0 "/></g></g></g></svg>